# xmcd
#
# Track frame offsets: 
#        150
#        18673
#        36420
#        51790
#        68195
#        79700
#        90574
#        103533
#        118106
#        129507
#        146529
#        162967
#        183894
#        205087
#        217162
#        230352
#        241884
#        254512
#        265576
#        281728
#        292173
#        304865
#        315349
#        328027
#
# Disc length: 4493 seconds
#
# Revision: 0
# Processed by: cddbd v1.5.2PL0 Copyright (c) Steve Scherf et al.
# Submitted via: ExactAudioCopy v0.95b3
#
DISCID=62118b18
DTITLE=Sir Douglas Quintet  - The Complete Mercury Recordings [CD4]
DYEAR=1900
DGENRE=
TTITLE0=Sir Doug's Recording Trip
TTITLE1=You're Doin' It Too Hard
TTITLE2=The Homecoming
TTITLE3=Soulful Woman
TTITLE4=Too Many Docile Minds
TTITLE5=Southside Girls
TTITLE6=Hello Amsterdam
TTITLE7=Spearfish By Night
TTITLE8=Colinda
TTITLE9=Linda Lou
TTITLE10=Dynamite Woman
TTITLE11=Leaving Kansas City
TTITLE12=At The Crossroads (Alternate Mix)
TTITLE13=Texas Me
TTITLE14=Menocino - Spanish Version
TTITLE15=Que Sera Manana (What About Tomorrow) - Spanish Version
TTITLE16=Nuevo Laredo - Spanish Version
TTITLE17=La Luna Fue Culpable (And It Didn't Even Bring Me Down) - Spa
TTITLE17=nish Version
TTITLE18=Ain't Goin' Down Right
TTITLE19=Lovin' Man On Your Hands
TTITLE20=Lovin' Man On Your Hands
TTITLE21=Reconsider Baby
TTITLE22=Your Bag Is Bringin' Me Down
TTITLE23=Movin' Out
EXTD=
EXTT0=
EXTT1=
EXTT2=
EXTT3=
EXTT4=
EXTT5=
EXTT6=
EXTT7=
EXTT8=
EXTT9=
EXTT10=
EXTT11=
EXTT12=
EXTT13=
EXTT14=
EXTT15=
EXTT16=
EXTT17=
EXTT18=
EXTT19=
EXTT20=
EXTT21=
EXTT22=
EXTT23=
PLAYORDER=
